<svg width="338" height="77" xmlns="http://www.w3.org/2000/svg" xmlns:xlink="http://www.w3.org/1999/xlink" xml:space="preserve" overflow="hidden"><defs><clipPath id="clip0"><rect x="102" y="235" width="338" height="77"/></clipPath></defs><g clip-path="url(#clip0)" transform="translate(-102 -235)"><path d="M47.2031 56.0536 47.2031 35.4023 29.5019 35.4023 11.8008 35.4023 11.8008 41.3027 11.8008 47.2031 26.5517 47.2031 41.3027 47.2031 41.3027 53.1034 41.3027 59.0038 23.0115 59.0038C-0.590038 59.0038 0 59.4759 0 41.3027 0 22.5395-1.88812 23.6015 31.8621 23.6015L59.0038 23.6015 59.0038 50.1533 59.0038 76.705 53.1034 76.705 47.2031 76.705 47.2031 56.0536Z" transform="matrix(1.00499 0 0 -1 102 311.852)"/><path d="M259.617 70.8046 259.617 64.9042 265.517 64.9042 271.418 64.9042 271.418 70.8046 271.418 76.705 265.517 76.705 259.617 76.705 259.617 70.8046Z" transform="matrix(1.00499 0 0 -1 102 311.852)"/><path d="M67.2644 56.6437C65.1402 54.5195 64.9042 52.7494 64.9042 41.3027 64.9042 23.1295 64.3142 23.6015 87.9157 23.6015L106.207 23.6015 106.207 29.5019 106.207 35.4023 91.4559 35.4023 76.705 35.4023 76.705 41.3027 76.705 47.2031 94.4061 47.2031 112.107 47.2031 112.107 35.4023 112.107 23.6015 118.008 23.6015 123.908 23.6015 123.908 41.3027 123.908 59.0038 96.7663 59.0038C71.1586 59.0038 69.5065 58.8858 67.2644 56.6437Z" transform="matrix(1.00499 0 0 -1 102 311.852)"/><path d="M132.169 56.6437C130.044 54.5195 129.808 52.7494 129.808 41.3027 129.808 23.1295 129.218 23.6015 152.82 23.6015L171.111 23.6015 171.111 29.5019 171.111 35.4023 156.36 35.4023 141.609 35.4023 141.609 41.3027 141.609 47.2031 159.31 47.2031 177.011 47.2031 177.011 29.5019 177.011 11.8008 153.41 11.8008 129.808 11.8008 129.808 5.90038 129.808 0 159.31 0 188.812 0 188.812 29.5019 188.812 59.0038 161.671 59.0038C136.063 59.0038 134.411 58.8858 132.169 56.6437Z" transform="matrix(1.00499 0 0 -1 102 311.852)"/><path d="M194.713 43.6628C194.713 22.1854 192.352 23.6015 226.575 23.6015L253.716 23.6015 253.716 41.3027 253.716 59.0038 247.816 59.0038 241.916 59.0038 241.916 47.2031 241.916 35.4023 224.215 35.4023 206.513 35.4023 206.513 47.2031 206.513 59.0038 200.613 59.0038 194.713 59.0038 194.713 43.6628Z" transform="matrix(1.00499 0 0 -1 102 311.852)"/><path d="M259.617 41.3027 259.617 23.6015 265.517 23.6015 271.418 23.6015 271.418 41.3027 271.418 59.0038 265.517 59.0038 259.617 59.0038 259.617 41.3027Z" transform="matrix(1.00499 0 0 -1 102 311.852)"/><path d="M277.318 41.3027 277.318 23.6015 306.82 23.6015 336.322 23.6015 336.322 29.5019 336.322 35.4023 312.72 35.4023 289.119 35.4023 289.119 47.2031 289.119 59.0038 283.218 59.0038 277.318 59.0038 277.318 41.3027Z" transform="matrix(1.00499 0 0 -1 102 311.852)"/></g></svg>