<?xml version="1.0" encoding="UTF-8"?>
<svg id="Layer_2" data-name="Layer 2" xmlns="http://www.w3.org/2000/svg" viewBox="0 0 309.18 239.34">
  <defs>
    <style>
      .cls-1 {
        fill: #fff;
        stroke-width: 0px;
      }
    </style>
  </defs>
  <g id="svg891">
    <path id="path861" class="cls-1" d="M261.91,20.04C241.89,10.68,220.49,3.88,198.12,0c-2.75,4.97-5.96,11.65-8.17,16.96-23.78-3.58-47.35-3.58-70.69,0-2.21-5.32-5.5-12-8.27-16.96-22.4,3.88-43.82,10.71-63.84,20.09C6.78,81.1-4.16,140.58,1.31,199.22c26.77,19.99,52.72,32.14,78.23,40.09,6.3-8.67,11.92-17.88,16.76-27.59-9.22-3.5-18.04-7.82-26.38-12.84,2.21-1.64,4.38-3.35,6.47-5.12,50.87,23.79,106.15,23.79,156.42,0,2.12,1.76,4.28,3.48,6.47,5.12-8.37,5.04-17.22,9.36-26.43,12.87,4.84,9.69,10.43,18.93,16.76,27.59,25.53-7.95,51.51-20.09,78.28-40.11,6.42-67.98-10.97-126.92-45.96-179.18ZM103.23,163.16c-15.27,0-27.8-14.26-27.8-31.62s12.26-31.64,27.8-31.64,28.06,14.26,27.8,31.64c.02,17.36-12.26,31.62-27.8,31.62ZM205.95,163.16c-15.27,0-27.8-14.26-27.8-31.62s12.26-31.64,27.8-31.64,28.06,14.26,27.8,31.64c0,17.36-12.26,31.62-27.8,31.62Z"/>
  </g>
</svg>