<svg version="1.0" xmlns="http://www.w3.org/2000/svg" width="960.000000pt" height="640.000000pt" viewBox="0 0 960.000000 640.000000" preserveAspectRatio="xMidYMid meet">

<g transform="translate(0.000000,640.000000) scale(0.100000,-0.100000)" fill="#ffffff" stroke="none">
<path d="M0 3200 l0 -3200 4800 0 4800 0 0 3200 0 3200 -4800 0 -4800 0 0 -3200z m8000 2000 l0 -400 400 0 400 0 0 -2000 0 -2000 -4000 0 -4000 0 0 2000 0 2000 400 0 400 0 0 400 0 400 3200 0 3200 0 0 -400z" fill="#ffffff"/>
<path d="M1600 4400 l0 -400 400 0 400 0 0 -400 0 -400 400 0 400 0 0 -400 0 -400 400 0 400 0 0 -400 0 -400 800 0 800 0 0 400 0 400 400 0 400 0 0 400 0 400 400 0 400 0 0 400 0 400 400 0 400 0 0 400 0 400 -400 0 -400 0 0 -400 0 -400 -400 0 -400 0 0 -400 0 -400 -400 0 -400 0 0 -400 0 -400 -800 0 -800 0 0 400 0 400 -400 0 -400 0 0 400 0 400 -400 0 -400 0 0 400 0 400 -400 0 -400 0 0 -400z" fill="#ffffff"/>
</g>
</svg>