<svg version="1.0" xmlns="http://www.w3.org/2000/svg" width="320.000000pt" height="131.000000pt" viewBox="0 0 320.000000 131.000000" preserveAspectRatio="xMidYMid meet">

<g transform="translate(0.000000,131.000000) scale(0.100000,-0.100000)" fill="#ffffff" stroke="none">
<path d="M2941 1303 l-23 -5 7 -431 c4 -238 9 -434 12 -437 8 -8 221 -6 229 3 9 9 28 856 19 865 -8 8 -210 12 -244 5z" fill="#ffffff"/>
<path d="M308 941 c-167 -43 -273 -180 -300 -388 -24 -186 43 -382 161 -469 129 -95 337 -110 489 -36 60 29 140 109 171 170 50 98 67 296 36 417 -65 250 -292 375 -557 306z m218 -197 c70 -33 112 -164 101 -309 -7 -94 -23 -146 -59 -189 -52 -64 -165 -72 -229 -18 -52 43 -72 102 -77 223 -7 159 29 263 102 295 43 18 121 17 162 -2z" fill="#ffffff"/>
<path d="M1285 947 c-164 -43 -244 -144 -233 -297 10 -131 61 -180 256 -244 97 -32 130 -47 145 -67 26 -36 15 -82 -26 -111 -46 -33 -186 -38 -277 -9 -35 11 -68 17 -71 13 -9 -10 -37 -99 -45 -144 -6 -35 -4 -39 22 -49 51 -19 174 -39 244 -39 134 0 242 36 319 106 61 54 83 104 89 195 4 67 1 84 -21 132 -34 76 -83 109 -226 154 -70 22 -124 45 -138 59 -46 46 -19 106 53 120 48 9 148 -1 204 -21 41 -14 46 -14 56 0 17 23 48 141 41 158 -15 39 -292 70 -392 44z" fill="#ffffff"/>
<path d="M1903 943 l-23 -4 0 -272 c0 -150 5 -303 10 -341 27 -185 129 -290 306 -316 132 -19 250 -11 417 26 l67 16 0 443 0 443 -31 6 c-17 3 -60 6 -94 6 -34 0 -77 -3 -94 -6 l-31 -6 0 -358 c0 -317 -2 -359 -16 -364 -31 -12 -144 -6 -184 10 -84 34 -100 104 -100 465 l0 247 -31 6 c-34 7 -160 6 -196 -1z" fill="#ffffff"/>
<path d="M2939 283 c-21 -5 -33 -107 -24 -197 l7 -65 55 -7 c60 -7 183 -1 202 10 7 5 11 49 11 130 0 120 -1 124 -22 130 -26 6 -204 6 -229 -1z" fill="#ffffff"/>
</g>
</svg>