<?xml version="1.0" standalone="no"?>
<!DOCTYPE svg PUBLIC "-//W3C//DTD SVG 20010904//EN"
 "http://www.w3.org/TR/2001/REC-SVG-20010904/DTD/svg10.dtd">
<svg version="1.0" xmlns="http://www.w3.org/2000/svg"
 width="285.000000pt" height="65.000000pt" viewBox="0 0 285.000000 65.000000"
 preserveAspectRatio="xMidYMid meet">

<g transform="translate(0.000000,65.000000) scale(0.100000,-0.100000)"
fill="#FFFFFF" stroke="none">
<path d="M400 475 l0 -175 -150 0 -150 0 0 50 0 50 125 0 125 0 0 50 0 50
-155 0 c-200 0 -195 4 -195 -150 0 -159 -16 -150 270 -150 l230 0 0 225 0 225
-50 0 -50 0 0 -175z"/>
<path d="M2200 600 l0 -50 50 0 50 0 0 50 0 50 -50 0 -50 0 0 -50z"/>
<path d="M570 480 c-18 -18 -20 -33 -20 -130 0 -154 -5 -150 195 -150 l155 0
0 50 0 50 -125 0 -125 0 0 50 0 50 150 0 150 0 0 -100 0 -100 50 0 50 0 0 150
0 150 -230 0 c-217 0 -231 -1 -250 -20z"/>
<path d="M1120 480 c-18 -18 -20 -33 -20 -130 0 -154 -5 -150 195 -150 l155 0
0 50 0 50 -125 0 -125 0 0 50 0 50 150 0 150 0 0 -150 0 -150 -200 0 -200 0 0
-50 0 -50 250 0 250 0 0 250 0 250 -230 0 c-217 0 -231 -1 -250 -20z"/>
<path d="M1650 370 c0 -182 -20 -170 270 -170 l230 0 0 150 0 150 -50 0 -50 0
0 -100 0 -100 -150 0 -150 0 0 100 0 100 -50 0 -50 0 0 -130z"/>
<path d="M2200 350 l0 -150 50 0 50 0 0 150 0 150 -50 0 -50 0 0 -150z"/>
<path d="M2350 350 l0 -150 250 0 250 0 0 50 0 50 -200 0 -200 0 0 100 0 100
-50 0 -50 0 0 -150z"/>
</g>
</svg>
